<svg xmlns="http://www.w3.org/2000/svg" viewBox="0 0 48 48">
    <path fill="#185abd" d="m24.48 29.316-9.505 9.505L1.588 25.434c-.784-.784-.784-2.054 0-2.838l6.667-6.667c.784-.784 2.054-.784 2.838 0L24.48 29.316z"/>
    <linearGradient id="a" x1="14.572" x2="43.188" y1="38.199" y2="9.583" gradientUnits="userSpaceOnUse">
        <stop offset="0" stop-color="#4191fd"/>
        <stop offset="1" stop-color="#55acfd"/>
    </linearGradient>
    <path fill="url(#a)" d="m17.797 41.642-6.667-6.667c-.784-.784-.784-2.054 0-2.838L36.907 6.358c.784-.784 2.054-.784 2.838 0l6.667 6.667c.784.784.784 2.054 0 2.838L20.634 41.642c-.783.783-2.054.783-2.837 0z"/>
</svg>